<?xml version="1.0" standalone="no"?><!DOCTYPE svg PUBLIC "-//W3C//DTD SVG 1.1//EN" "http://www.w3.org/Graphics/SVG/1.1/DTD/svg11.dtd"><svg t="1628501603622" class="icon" viewBox="0 0 1024 1024" version="1.1" xmlns="http://www.w3.org/2000/svg" p-id="9365" xmlns:xlink="http://www.w3.org/1999/xlink" width="200" height="200"><defs><style type="text/css"></style></defs><path d="M766.3 800.5H329.6c-44.3 0-80.4-36.1-80.4-80.4 0-44.3 36.1-80.4 80.4-80.4h436.8c14.7 0 26.5 11.9 26.5 26.5 0 14.7-11.9 26.5-26.5 26.5H329.6c-15.1 0-27.3 12.3-27.3 27.3s12.3 27.3 27.3 27.3h436.7c14.7 0 26.5 11.9 26.5 26.5 0 14.8-11.9 26.7-26.5 26.7z" fill="#FDF17F" p-id="9366"></path><path d="M305.4 415.9c-1.4 0.2-2.8 0.4-4.1 0.4-13.9 0-26-10.3-28.1-24.3l-29.5-199.4v-0.6c-1.3-10.3-10.3-18-20.5-18H120.4c-15.6 0-28.4-12.7-28.4-28.4s12.7-28.5 28.3-28.5H223c38.8 0 71.8 28.9 76.8 67.2l29.4 199.3c2.3 15.6-8.3 30.1-23.8 32.3z" fill="#50E6CC" p-id="9367"></path><path d="M850.3 694.8h-499c-18.1 0-33.4-13.3-36.3-31.1l-51.4-335.1h631.7c22.4 0 39.6 20 36.3 42.2l-44.9 292.8c-2.8 17.9-18.2 31.2-36.4 31.2z" fill="#F77490" p-id="9368"></path><path d="M460.9 602.7c-15.5 0-28.3-12.7-28.3-28.3V438.9c0-15.5 12.7-28.3 28.3-28.3 15.5 0 28.3 12.7 28.3 28.3v135.3c0 15.8-12.7 28.5-28.3 28.5zM597.8 602.7c-15.5 0-28.3-12.7-28.3-28.3V438.9c0-15.5 12.7-28.3 28.3-28.3 15.5 0 28.3 12.7 28.3 28.3v135.3c0 15.8-12.6 28.5-28.3 28.5zM734.8 602.7c-15.5 0-28.3-12.7-28.3-28.3V438.9c0-15.5 12.7-28.3 28.3-28.3 15.5 0 28.3 12.7 28.3 28.3v135.3c-0.1 15.8-12.9 28.5-28.3 28.5z" fill="#FFFFFF" p-id="9369"></path><path d="M444.4 906.9c-44 0-79.7-35.8-79.7-79.7 0-44 35.8-79.7 79.7-79.7s79.7 35.8 79.7 79.7c0 43.9-35.7 79.7-79.7 79.7z m0-106.4c-14.7 0-26.6 12-26.6 26.6 0 14.7 12 26.6 26.6 26.6s26.6-12 26.6-26.6c0-14.7-11.9-26.6-26.6-26.6zM765.5 906.9c-44 0-79.7-35.8-79.7-79.7 0-44 35.8-79.7 79.7-79.7 44 0 79.7 35.8 79.7 79.7 0 43.9-35.7 79.7-79.7 79.7z m0-106.4c-14.7 0-26.6 12-26.6 26.6 0 14.7 12 26.6 26.6 26.6 14.7 0 26.6-12 26.6-26.6 0.1-14.7-11.9-26.6-26.6-26.6z" fill="#FFA300" p-id="9370"></path><path d="M519.5 790.5h170.9v20H519.5zM767.8 757.4H329.6c-20.6 0-37.3-16.7-37.3-37.3s16.7-37.3 37.3-37.3h9.8v20h-9.8c-9.5 0-17.3 7.8-17.3 17.3s7.8 17.3 17.3 17.3h438.2v20z" fill="#FF7900" p-id="9371"></path><path d="M369.3 810.5h-39.6c-49.8 0-90.4-40.6-90.4-90.4 0-20.6 7.1-40.7 20-56.7 12.7-15.8 30.5-26.9 50.1-31.4l4.5 19.5c-15.3 3.5-29.1 12.2-39 24.5-10.2 12.6-15.6 27.9-15.6 44.2 0 38.8 31.6 70.4 70.4 70.4h39.6v19.9z" fill="#FF7900" p-id="9372"></path><path d="M253.9 330.1l-20.2-136.6v-0.5c-1-5-5.5-8.8-10.5-8.8H120.4C99.2 184.2 82 167 82 145.8s17.2-38.5 38.3-38.5H223c43.7 0 81 32.6 86.8 75.8l21.3 144.1-19.8 2.9L290 185.7c-4.4-33.4-33.2-58.5-67-58.5H120.3c-10.1 0-18.3 8.3-18.3 18.5 0 10.1 8.3 18.4 18.4 18.4h102.8c15.3 0 28.3 11.5 30.4 26.7l0.1 0.7v0.5l20 135.2-19.8 2.9z" fill="#00B794" p-id="9373"></path><path d="M850.3 704.8h-499c-23 0-42.4-16.6-46.2-39.5l-53.2-346.7h643.4c13.6 0 26.4 5.9 35.3 16.2 8.9 10.3 12.9 24 10.9 37.5l-44.9 292.8c-3.6 23-23.1 39.7-46.3 39.7z m-575-366.2l49.6 323.6c2.1 13.1 13.2 22.6 26.4 22.6h499c13.3 0 24.5-9.6 26.5-22.7l44.9-292.8c1.1-7.7-1.1-15.5-6.2-21.4-5.1-5.9-12.4-9.3-20.2-9.3h-620z" fill="#D30032" p-id="9374"></path><path d="M460.9 612.7c-21.1 0-38.3-17.2-38.3-38.3V438.9c0-21.1 17.2-38.3 38.3-38.3s38.3 17.2 38.3 38.3v135.3c0 21.2-17.2 38.5-38.3 38.5z m0-192.1c-10.1 0-18.3 8.2-18.3 18.3v135.5c0 10.1 8.2 18.3 18.3 18.3 10.1 0 18.3-8.3 18.3-18.5V438.9c0-10.1-8.2-18.3-18.3-18.3zM597.8 612.7c-21.1 0-38.3-17.2-38.3-38.3V438.9c0-21.1 17.2-38.3 38.3-38.3s38.3 17.2 38.3 38.3v135.3c0 21.2-17.2 38.5-38.3 38.5z m0-192.1c-10.1 0-18.3 8.2-18.3 18.3v135.5c0 10.1 8.2 18.3 18.3 18.3s18.3-8.3 18.3-18.5V438.9c0-10.1-8.2-18.3-18.3-18.3zM734.8 612.7c-21.1 0-38.3-17.2-38.3-38.3V438.9c0-21.1 17.2-38.3 38.3-38.3s38.3 17.2 38.3 38.3v135.3c-0.1 21.3-17.3 38.5-38.3 38.5z m0-192.1c-10.1 0-18.3 8.2-18.3 18.3v135.5c0 10.1 8.2 18.3 18.3 18.3 10 0 18.2-8.3 18.3-18.6V438.9c0-10.1-8.2-18.3-18.3-18.3z" fill="#D30032" p-id="9375"></path><path d="M444.4 916.9c-49.5 0-89.7-40.2-89.7-89.7s40.2-89.7 89.7-89.7 89.7 40.2 89.7 89.7-40.2 89.7-89.7 89.7z m0-159.4c-38.4 0-69.7 31.3-69.7 69.7s31.3 69.7 69.7 69.7 69.7-31.3 69.7-69.7-31.3-69.7-69.7-69.7z m0 106.2c-20.2 0-36.6-16.4-36.6-36.6 0-20.2 16.4-36.6 36.6-36.6s36.6 16.4 36.6 36.6c0 20.2-16.4 36.6-36.6 36.6z m0-53.2c-9.2 0-16.6 7.4-16.6 16.6s7.4 16.6 16.6 16.6 16.6-7.4 16.6-16.6-7.4-16.6-16.6-16.6zM765.5 916.9c-49.5 0-89.7-40.2-89.7-89.7s40.2-89.7 89.7-89.7 89.7 40.2 89.7 89.7-40.2 89.7-89.7 89.7z m0-159.4c-38.4 0-69.7 31.3-69.7 69.7s31.3 69.7 69.7 69.7 69.7-31.3 69.7-69.7-31.3-69.7-69.7-69.7z m0 106.2c-20.2 0-36.6-16.4-36.6-36.6 0-20.2 16.4-36.6 36.6-36.6 9.9 0 19.1 3.8 26 10.8 6.9 6.9 10.6 16.1 10.6 25.8 0 20.2-16.4 36.6-36.6 36.6z m0-53.2c-9.2 0-16.6 7.4-16.6 16.6s7.4 16.6 16.6 16.6 16.6-7.4 16.6-16.6c0-4.4-1.7-8.6-4.8-11.7-3.1-3.2-7.3-4.9-11.8-4.9z" fill="#FF7900" p-id="9376"></path></svg>